HIERARCHY
ROOT Hips
{
	OFFSET 0.000000 0.000000 0.000000
	CHANNELS 6 Xposition Yposition Zposition Xrotation Yrotation Zrotation
	JOINT LeftUpLeg_virtual
	{
		OFFSET 0.000000 0.000000 0.000000
		CHANNELS 3 Xrotation Yrotation Zrotation
		JOINT LeftUpLeg
		{
			OFFSET 15.427100 -6.655098 0.678600
			CHANNELS 3 Xrotation Yrotation Zrotation
			JOINT LeftLeg
			{
				OFFSET 4.081073 -39.591068 13.024000
				CHANNELS 3 Xrotation Yrotation Zrotation
				JOINT LeftFoot
				{
					OFFSET -4.081074 -37.707932 -15.979700
					CHANNELS 3 Xrotation Yrotation Zrotation
					JOINT LeftToeBase
					{
						OFFSET 5.346399 -15.068900 20.645000
						CHANNELS 3 Xrotation Yrotation Zrotation
						JOINT LeftToe_End
						{
							OFFSET 2.754700 0.931300 11.300900
							CHANNELS 3 Xrotation Yrotation Zrotation
							End Site
							{
								OFFSET 0 0 0
							}
						}
					}
				}
			}
		}
	}
	JOINT RightUpLeg_virtual
	{
		OFFSET 0.000000 0.000000 0.000000
		CHANNELS 3 Xrotation Yrotation Zrotation
		JOINT RightUpLeg
		{
			OFFSET -15.569500 -6.655098 0.678600
			CHANNELS 3 Xrotation Yrotation Zrotation
			JOINT RightLeg
			{
				OFFSET -4.081825 -39.591045 13.023800
				CHANNELS 3 Xrotation Yrotation Zrotation
				JOINT RightFoot
				{
					OFFSET 4.081824 -37.707954 -15.979600
					CHANNELS 3 Xrotation Yrotation Zrotation
					JOINT RightToeBase
					{
						OFFSET -5.346400 -15.068900 20.645000
						CHANNELS 3 Xrotation Yrotation Zrotation
						JOINT RightToe_End
						{
							OFFSET -2.754700 0.931300 11.300900
							CHANNELS 3 Xrotation Yrotation Zrotation
							End Site
							{
								OFFSET 0 0 0
							}
						}
					}
				}
			}
		}
	}
	JOINT Spine_virtual
	{
		OFFSET 0.000000 0.000000 0.000000
		CHANNELS 3 Xrotation Yrotation Zrotation
		JOINT Spine
		{
			OFFSET -0.279200 12.230698 -2.892100
			CHANNELS 3 Xrotation Yrotation Zrotation
			JOINT Spine1
			{
				OFFSET -0.232667 10.192268 -1.242267
				CHANNELS 3 Xrotation Yrotation Zrotation
				JOINT Spine1_split
				{
					OFFSET -0.232667 10.192268 -1.242267
					CHANNELS 3 Xrotation Yrotation Zrotation
					JOINT Spine2
					{
						OFFSET -0.232667 10.192268 -1.242267
						CHANNELS 3 Xrotation Yrotation Zrotation
						JOINT Neck_virtual
						{
							OFFSET 0.000000 0.000000 0.000000
							CHANNELS 3 Xrotation Yrotation Zrotation
							JOINT Neck
							{
								OFFSET -0.418800 17.814194 8.416900
								CHANNELS 3 Xrotation Yrotation Zrotation
								JOINT Head
								{
									OFFSET 0.000000 7.031097 3.806800
									CHANNELS 3 Xrotation Yrotation Zrotation
									JOINT HeadTop_End
									{
										OFFSET 0.000000 24.646606 12.978600
										CHANNELS 3 Xrotation Yrotation Zrotation
										End Site
										{
											OFFSET 0 0 0
										}
									}
								}
							}
						}
						JOINT LeftShoulder_virtual
						{
							OFFSET 0.000000 0.000000 0.000000
							CHANNELS 3 Xrotation Yrotation Zrotation
							JOINT LeftShoulder
							{
								OFFSET 8.476499 7.247704 -3.868750
								CHANNELS 3 Xrotation Yrotation Zrotation
								JOINT LeftShoulder_split
								{
									OFFSET 8.476499 7.247704 -3.868750
									CHANNELS 3 Xrotation Yrotation Zrotation
									JOINT LeftArm
									{
										OFFSET 9.308998 -2.777710 0.208600
										CHANNELS 3 Xrotation Yrotation Zrotation
										JOINT LeftForeArm
										{
											OFFSET 29.972298 0.000000 0.000000
											CHANNELS 3 Xrotation Yrotation Zrotation
											JOINT LeftHand
											{
												OFFSET 26.026505 0.000000 0.000000
												CHANNELS 3 Xrotation Yrotation Zrotation
												End Site
												{
													OFFSET 0 0 0
												}
											}
										}
									}
								}
							}
						}
						JOINT RightShoulder_virtual
						{
							OFFSET 0.000000 0.000000 0.000000
							CHANNELS 3 Xrotation Yrotation Zrotation
							JOINT RightShoulder
							{
								OFFSET -7.570500 7.247704 -3.868750
								CHANNELS 3 Xrotation Yrotation Zrotation
								JOINT RightShoulder_split
								{
									OFFSET -7.570500 7.247704 -3.868750
									CHANNELS 3 Xrotation Yrotation Zrotation
									JOINT RightArm
									{
										OFFSET -9.308998 -2.777710 0.208500
										CHANNELS 3 Xrotation Yrotation Zrotation
										JOINT RightForeArm
										{
											OFFSET -29.972300 0.000000 0.000000
											CHANNELS 3 Xrotation Yrotation Zrotation
											JOINT RightHand
											{
												OFFSET -26.026505 0.000000 0.000000
												CHANNELS 3 Xrotation Yrotation Zrotation
												End Site
												{
													OFFSET 0 0 0
												}
											}
										}
									}
								}
							}
						}
					}
				}
			}
		}
	}
}
MOTION
Frames: 11
Frame Time: 0.03333333
-19.834824 75.639236 -19.089846 0.000000 0.000000 0.000000 34.999942 4.251766 -0.835777 -58.585224 -15.479130 26.148297 31.708388 -11.511731 1.836622 4.101211 21.179667 -39.527217 2.954595 -7.567247 0.958034 0.000000 0.000000 0.000000 36.012944 1.961929 -0.640507 -56.583073 -5.605771 -21.761606 42.969120 7.492477 -7.390240 -18.124744 -19.951623 25.681522 1.564031 9.972501 -2.656948 0.000000 0.000000 0.000000 38.075152 5.442019 -3.675717 14.969956 3.339937 2.339600 4.759168 1.639204 1.942967 0.079561 -0.261774 0.119233 0.000000 0.000000 0.000000 6.119555 3.448002 2.072680 -1.749212 -1.725351 -0.556521 -3.057902 -30.012237 -8.438830 0.000000 0.000000 0.000000 4.368374 2.372010 0.681877 -0.611693 -21.608447 -3.279074 3.749988 3.147680 -5.949518 19.779780 -20.798476 -49.771892 -7.763230 -67.345774 -4.197737 0.000000 0.000000 0.000000 6.721676 2.939223 2.211307 1.547163 22.254674 5.987175 -3.890382 -0.705037 4.790220 12.045422 46.343923 13.051797 -23.041010 23.623416 11.721587 0.000000 0.000000 0.000000 
-18.969250 74.288139 -19.323004 0.000000 0.000000 0.000000 37.489983 5.497775 -0.530831 -62.388348 -15.703857 24.492136 34.036134 -11.895774 1.692457 3.535027 20.330886 -39.416451 1.773143 -7.613203 0.903840 0.000000 0.000000 0.000000 38.625936 2.587920 -0.075259 -59.961104 -5.038561 -23.353653 44.877778 8.238532 -7.974490 -18.461499 -20.008974 27.053645 0.574432 10.313690 -3.097467 0.000000 0.000000 0.000000 40.800039 6.232894 -3.161039 15.631752 3.937953 2.556082 4.908068 1.782477 2.026786 0.045060 -0.227279 0.111333 0.000000 0.000000 0.000000 6.286645 3.545504 2.119871 -2.365599 -1.659572 -0.587094 -4.559090 -29.621158 -9.888943 0.000000 0.000000 0.000000 4.524321 2.493057 0.799170 -0.588806 -22.618264 -2.852007 3.862874 3.127808 -5.982424 19.893419 -21.236897 -49.304291 -10.643024 -68.497556 -7.061724 0.000000 0.000000 0.000000 6.795645 3.037847 2.302981 2.361937 22.848419 4.813239 -4.035352 -0.566315 4.661356 8.965864 46.516809 11.224018 -24.046055 24.131359 11.888032 0.000000 0.000000 0.000000 
-18.015488 72.929756 -19.390158 0.000000 0.000000 0.000000 39.987831 7.031974 -0.056396 -66.003758 -15.719976 22.595178 35.998034 -12.196635 1.382791 2.642290 19.602740 -38.946931 0.607802 -7.627277 0.761003 0.000000 0.000000 0.000000 41.035032 3.502782 0.667234 -63.185069 -4.475055 -25.441770 47.120024 9.076849 -8.569947 -19.140128 -20.204174 28.532371 -0.098554 10.739022 -3.606049 0.000000 0.000000 0.000000 43.457953 7.386683 -2.522229 16.181336 4.436708 2.738826 5.090102 1.964732 2.043945 0.040970 -0.211830 0.105342 0.000000 0.000000 0.000000 6.462890 3.690974 2.123183 -2.712664 -1.603178 -0.346715 -6.357243 -29.467622 -11.330871 0.000000 0.000000 0.000000 4.687732 2.650315 0.881445 -0.582051 -23.567750 -2.393860 4.194214 2.737374 -5.919596 20.803008 -22.667986 -49.040225 -13.453565 -69.357743 -9.914643 0.000000 0.000000 0.000000 6.878964 3.178282 2.346337 3.145482 23.295509 3.827005 -4.297796 -0.466259 4.657150 4.794224 46.475722 10.224498 -24.858149 24.611844 11.832021 0.000000 0.000000 0.000000 
-17.028576 71.424843 -19.305048 0.000000 0.000000 0.000000 42.314473 8.781212 0.530199 -69.458291 -15.643606 20.672602 37.908346 -12.538126 0.896733 1.553338 19.029740 -38.298537 -0.584847 -7.600133 0.538184 0.000000 0.000000 0.000000 43.188570 4.755674 1.463636 -66.110849 -3.749555 -27.907224 49.709044 9.899215 -9.192067 -20.331605 -20.741609 29.797868 -0.081521 11.169944 -4.021794 0.000000 0.000000 0.000000 45.901573 8.828388 -1.828826 16.662774 4.819736 2.899014 5.347808 2.185484 1.996343 0.044436 -0.197112 0.098485 0.000000 0.000000 0.000000 6.685566 3.879165 2.078493 -2.842964 -1.560710 0.159446 -8.418125 -29.599882 -12.705473 0.000000 0.000000 0.000000 4.892401 2.840124 0.914824 -0.585332 -24.321481 -1.848706 4.605259 2.293008 -5.741927 22.145205 -24.660046 -48.893773 -15.762173 -69.864188 -12.271201 0.000000 0.000000 0.000000 7.014076 3.349814 2.328923 3.862358 23.657304 3.083596 -4.572489 -0.507230 4.814314 0.395753 46.140305 9.316639 -25.631808 25.492530 11.853547 0.000000 0.000000 0.000000 
-16.069080 69.674011 -19.078657 0.000000 0.000000 0.000000 44.310944 10.657448 1.160751 -72.909442 -15.624440 18.886795 40.260379 -12.980398 0.286453 0.238010 18.638558 -37.507765 -1.614038 -7.542182 0.247532 0.000000 0.000000 0.000000 45.051030 6.364558 2.172217 -68.544691 -2.716310 -30.529392 52.701309 10.622090 -9.859960 -21.926786 -21.710207 30.765091 0.044405 11.569878 -4.152916 0.000000 0.000000 0.000000 48.045576 10.438345 -1.174100 17.138218 5.082674 3.062953 5.733311 2.434488 1.905975 0.044411 -0.192905 0.100059 0.000000 0.000000 0.000000 6.980371 4.091503 1.984843 -2.864355 -1.533795 0.862308 -10.684788 -29.962360 -13.942470 0.000000 0.000000 0.000000 5.176857 3.042623 0.906185 -0.567927 -24.758370 -1.106510 4.937090 1.961951 -5.479654 23.456594 -26.679233 -48.767455 -17.401133 -70.031166 -13.893001 0.000000 0.000000 0.000000 7.251655 3.534694 2.260971 4.497693 24.033863 2.567552 -4.839394 -0.685709 5.148200 -3.311207 45.579809 7.668603 -26.499090 26.929911 12.272342 0.000000 0.000000 0.000000 
-15.167911 67.650177 -18.751070 0.000000 0.000000 0.000000 45.908017 12.516486 1.728609 -76.336885 -15.822611 17.389996 43.253334 -13.662552 -0.365230 -1.188319 18.362590 -36.763958 -2.487337 -7.462201 -0.012753 0.000000 0.000000 0.000000 46.617667 8.234345 2.675019 -70.398411 -1.410351 -33.124765 56.166800 11.216059 -10.590825 -23.641657 -23.128141 31.535072 -0.423420 11.940484 -3.854393 0.000000 0.000000 0.000000 49.843299 12.064390 -0.650171 17.673828 5.231675 3.259041 6.276012 2.700391 1.796474 0.062375 -0.208061 0.110080 0.000000 0.000000 0.000000 7.384111 4.309484 1.869602 -2.912245 -1.518566 1.685607 -13.138053 -30.502986 -15.053722 0.000000 0.000000 0.000000 5.586736 3.242656 0.875046 -0.527299 -24.770957 -0.163129 5.105294 1.881128 -5.220274 24.284300 -28.408891 -48.683519 -18.315719 -69.995164 -14.685100 0.000000 0.000000 0.000000 7.637258 3.719620 2.160105 5.060349 24.555567 2.242230 -5.142846 -1.051480 5.666876 -5.894410 44.852179 4.869495 -27.463378 28.512763 13.140282 0.000000 0.000000 0.000000 
-14.354451 65.364983 -18.352766 0.000000 0.000000 0.000000 47.128223 14.282676 2.139550 -79.701211 -16.276517 16.261407 46.708884 -14.541787 -1.012349 -2.702107 18.183051 -36.219831 -3.248615 -7.352174 -0.244418 0.000000 0.000000 0.000000 47.876727 10.118389 2.969833 -71.663595 0.027621 -35.512790 59.884401 11.645331 -11.386613 -25.482392 -24.973472 32.068203 -1.416772 12.260383 -3.144272 0.000000 0.000000 0.000000 51.258920 13.610622 -0.268421 18.301832 5.274800 3.521709 6.965528 2.959454 1.693978 0.054355 -0.210165 0.126361 0.000000 0.000000 0.000000 7.904207 4.513515 1.769060 -3.083735 -1.526981 2.551483 -15.752204 -31.157018 -16.048151 0.000000 0.000000 0.000000 6.140063 3.433530 0.841834 -0.487514 -24.310627 0.868494 5.172686 1.870071 -4.931283 24.505173 -29.861686 -48.635209 -18.550724 -69.969810 -14.769844 0.000000 0.000000 0.000000 8.176622 3.898117 2.055222 5.576369 25.292078 1.994978 -5.421076 -1.402055 6.065675 -7.701369 44.053470 1.170235 -28.521989 29.624586 14.338211 0.000000 0.000000 0.000000 
-13.606011 62.967091 -17.890825 0.000000 0.000000 0.000000 48.077493 15.914315 2.363104 -82.893860 -16.903550 15.470498 50.354224 -15.557697 -1.545191 -4.156305 18.074007 -36.011483 -4.088200 -7.216346 -0.398477 0.000000 0.000000 0.000000 48.837512 11.810353 3.094112 -72.388462 1.394569 -37.669286 63.689178 11.912259 -12.170210 -27.646681 -27.117149 32.176980 -2.519591 12.521597 -2.119000 0.000000 0.000000 0.000000 52.411286 15.060202 -0.041401 19.003396 5.233264 3.852586 7.779953 3.200902 1.613620 0.031398 -0.209772 0.132696 0.000000 0.000000 0.000000 8.513232 4.697837 1.711927 -3.433639 -1.580142 3.371163 -18.430034 -31.868447 -16.939612 0.000000 0.000000 0.000000 6.835925 3.606973 0.819797 -0.455829 -23.494275 1.922502 5.192690 1.766596 -4.684809 24.196054 -31.221331 -48.709528 -18.461185 -70.163678 -14.568452 0.000000 0.000000 0.000000 8.858136 4.075418 1.978363 6.080357 26.246776 1.766600 -5.836597 -1.672026 6.338135 -9.452049 43.254382 -2.768664 -29.562076 29.821897 15.627724 0.000000 0.000000 0.000000 
-12.906714 60.630241 -17.349588 0.000000 0.000000 0.000000 48.900866 17.367940 2.361001 -85.727309 -17.569516 14.957486 53.822212 -16.640853 -1.884632 -5.378833 18.055697 -36.228027 -5.021826 -7.072017 -0.409733 0.000000 0.000000 0.000000 49.592952 13.145327 3.129522 -72.703184 2.555025 -39.607563 67.416351 12.064112 -12.840066 -30.025054 -29.345508 31.943699 -3.526138 12.761463 -0.990869 0.000000 0.000000 0.000000 53.385486 16.378920 0.053080 19.713319 5.120025 4.227868 8.662783 3.412311 1.563484 0.018603 -0.215009 0.109286 0.000000 0.000000 0.000000 9.172436 4.855920 1.714425 -3.929887 -1.685885 4.094828 -21.002540 -32.716196 -17.730608 0.000000 0.000000 0.000000 7.627373 3.760082 0.812346 -0.440998 -22.474275 2.884983 5.367481 1.384159 -4.452798 23.369687 -32.660558 -49.023109 -18.142579 -70.569255 -14.294028 0.000000 0.000000 0.000000 9.637257 4.245555 1.938415 6.588622 27.272107 1.465631 -6.327880 -1.706313 6.386601 -11.910385 42.505906 -6.052456 -30.622009 29.257040 16.842767 0.000000 0.000000 0.000000 
-12.319791 58.522285 -16.745134 0.000000 0.000000 0.000000 49.655762 18.557235 2.206108 -88.093943 -18.156425 14.670282 56.827830 -17.609433 -2.063797 -6.402877 18.226829 -36.645526 -5.685656 -6.921890 -0.350167 0.000000 0.000000 0.000000 50.213440 14.085072 3.128633 -72.707070 3.496620 -41.282271 70.868472 12.214677 -13.334122 -32.306576 -31.433664 31.674746 -4.371236 13.037211 0.019491 0.000000 0.000000 0.000000 54.318466 17.583438 -0.008058 20.345428 4.955245 4.610219 9.554525 3.582889 1.536381 0.002431 -0.223257 0.088254 0.000000 0.000000 0.000000 9.834725 4.983184 1.764164 -4.474057 -1.844464 4.709036 -23.244961 -33.719688 -18.380731 0.000000 0.000000 0.000000 8.451471 3.886986 0.812915 -0.429284 -21.465698 3.716876 5.481386 0.723110 -4.261002 22.243249 -34.090594 -49.624941 -18.003918 -71.095234 -14.398937 0.000000 0.000000 0.000000 10.442348 4.401285 1.937808 7.087648 28.185247 1.044991 -6.802115 -1.516660 6.256526 -15.410206 41.958474 -7.985149 -31.921804 28.689366 18.112545 0.000000 0.000000 0.000000 
-11.907811 56.767372 -16.127806 0.000000 0.000000 0.000000 50.392743 19.379385 2.014345 -89.943653 -18.639969 14.500408 59.283549 -18.328808 -2.053148 -7.321389 18.711351 -36.953748 -5.815012 -6.790633 -0.235406 0.000000 0.000000 0.000000 50.840096 14.729498 3.073650 -72.467972 4.252393 -42.645427 73.805207 12.506677 -13.642464 -34.228957 -33.209442 31.712883 -5.187550 13.394625 0.778375 0.000000 0.000000 0.000000 55.298745 18.618515 -0.226706 20.804908 4.762489 4.954763 10.397487 3.707145 1.512935 0.005049 -0.249113 0.076313 0.000000 0.000000 0.000000 10.461639 5.079885 1.826808 -4.952309 -2.030084 5.210287 -24.971197 -34.933662 -18.865541 0.000000 0.000000 0.000000 9.237469 3.982758 0.805361 -0.376640 -20.665163 4.439924 5.602761 0.006895 -4.117958 20.891454 -35.214591 -50.559225 -18.525377 -71.612689 -15.342907 0.000000 0.000000 0.000000 11.218542 4.525852 1.952461 7.533276 28.790234 0.520846 -7.359648 -1.400030 6.221442 -19.555352 41.609932 -8.301479 -33.660538 29.020388 19.673807 0.000000 0.000000 0.000000 
